<?xml version="1.0" encoding="iso-8859-1"?>
<!-- Generator: Adobe Illustrator 19.0.0, SVG Export Plug-In . SVG Version: 6.00 Build 0)  -->
<svg version="1.1" id="Layer_1" xmlns="http://www.w3.org/2000/svg" xmlns:xlink="http://www.w3.org/1999/xlink" x="0px" y="0px"
	 viewBox="0 0 504.737 504.737" style="enable-background:new 0 0 504.737 504.737;" xml:space="preserve">
<g>
	<path style="fill:#2CD282;" d="M93.648,224.635c-1.707,0-3.413,0-4.267-0.853l-76.8-46.933c-4.267-2.56-5.12-7.68-2.56-11.947
		s7.68-5.12,11.947-2.56l72.533,43.52l76.8-49.493v-89.6c0-5.12,3.413-8.533,8.533-8.533c5.12,0,8.533,3.413,8.533,8.533v93.867
		c0,2.56-1.707,5.973-4.267,6.827l-85.333,55.467C97.062,223.782,95.355,224.635,93.648,224.635"/>
	<path style="fill:#2CD282;" d="M170.449,446.502c-5.12,0-8.533-3.413-8.533-8.533v-89.6l-76.8-49.493l-71.68,52.053
		c-4.267,2.56-9.387,1.707-11.947-1.707c-2.56-4.267-1.707-9.387,1.707-12.8l76.8-55.467c2.56-1.707,6.827-2.56,9.387,0
		l85.333,55.467c2.56,1.707,4.267,4.267,4.267,6.827v94.72C178.982,443.089,175.569,446.502,170.449,446.502"/>
</g>
<g>
	<path style="fill:#CC66A1;" d="M330.022,449.062c-5.12,0-8.533-3.413-8.533-8.533v-94.72c0-2.56,1.707-5.973,4.267-6.827
		l85.333-55.467c2.56-1.707,5.973-1.707,9.387,0l76.8,46.933c4.267,2.56,5.12,7.68,2.56,11.947s-7.68,5.12-11.947,2.56
		l-72.533-43.52l-76.8,49.493v89.6C338.555,445.649,335.142,449.062,330.022,449.062"/>
	<path style="fill:#CC66A1;" d="M419.622,222.075c-1.707,0-3.413-0.853-4.267-1.707l-85.333-55.467
		c-2.56-1.707-4.267-4.267-4.267-6.827V64.209c0-5.12,3.413-8.533,8.533-8.533c5.12,0,8.533,3.413,8.533,8.533v89.6l76.8,49.493
		l71.68-52.053c3.413-2.56,9.387-1.707,11.947,1.707c2.56,3.413,1.707,9.387-1.707,11.947l-76.8,55.467
		C423.035,222.075,421.329,222.075,419.622,222.075"/>
</g>
<polygon style="fill:#25B872;" points="255.782,301.435 170.449,356.902 85.115,301.435 85.115,207.569 170.449,152.102 
	255.782,207.569 "/>
<polygon style="fill:#7D6599;" points="255.782,207.569 341.115,152.102 426.449,207.569 426.449,301.435 341.115,356.902 
	255.782,301.435 "/>
<path style="fill:#2CD282;" d="M213.115,254.502c0-23.893-18.773-42.667-42.667-42.667s-42.667,18.773-42.667,42.667
	s18.773,42.667,42.667,42.667S213.115,278.395,213.115,254.502"/>
<path style="fill:#CC66A1;" d="M383.782,254.502c0-23.893-18.773-42.667-42.667-42.667c-23.893,0-42.667,18.773-42.667,42.667
	s18.773,42.667,42.667,42.667C365.009,297.169,383.782,278.395,383.782,254.502"/>
<g>
</g>
<g>
</g>
<g>
</g>
<g>
</g>
<g>
</g>
<g>
</g>
<g>
</g>
<g>
</g>
<g>
</g>
<g>
</g>
<g>
</g>
<g>
</g>
<g>
</g>
<g>
</g>
<g>
</g>
</svg>
