<?xml version="1.0" encoding="iso-8859-1"?>
<!-- Generator: Adobe Illustrator 19.0.0, SVG Export Plug-In . SVG Version: 6.00 Build 0)  -->
<svg version="1.1" id="Layer_1" xmlns="http://www.w3.org/2000/svg" xmlns:xlink="http://www.w3.org/1999/xlink" x="0px" y="0px"
	 viewBox="0 0 512 512" style="enable-background:new 0 0 512 512;" xml:space="preserve">
<g transform="translate(1)">
	<g>
		<path style="fill:#FFE100;" d="M225.987,192.853c-3.413,0-5.973-1.707-7.68-4.267c-0.853-0.853-0.853-1.707-1.707-2.56
			c-1.707-1.707-2.56-4.267-1.707-6.827c0.853-2.56,2.56-4.267,4.267-5.973c1.707-0.853,2.56-1.707,4.267-1.707
			c4.267-1.707,9.387,0,11.093,4.267c1.707,2.56,0.853,5.973-0.853,8.533c0,3.413-1.707,6.827-4.267,7.68
			C229.4,192,227.693,192.853,225.987,192.853z"/>
		<path style="fill:#FFE100;" d="M209.773,229.547c-4.267,0-7.68-2.56-8.533-6.827c-0.853-4.267,1.707-9.387,5.973-10.24
			c0.853,0,1.707-0.853,2.56-0.853c4.267-1.707,9.387,0,11.093,4.267s0,9.387-4.267,11.093c-1.707,0.853-4.267,1.707-5.973,1.707
			C211.48,229.547,210.627,229.547,209.773,229.547z M226.84,215.04c-0.853,0-2.56,0-3.413-0.853
			c-4.267-1.707-5.973-6.827-4.267-11.093c0-0.853,0.853-1.707,0.853-2.56c0.853-4.267,5.973-7.68,10.24-5.973
			c4.267,0.853,7.68,5.973,5.973,10.24c-0.853,1.707-0.853,4.267-1.707,5.973C233.667,213.333,230.253,215.04,226.84,215.04z"/>
		<path style="fill:#FFE100;" d="M185.88,228.693c-0.853,0-2.56,0-3.413-0.853c-4.267-1.707-5.973-6.827-4.267-11.093
			c0.853-1.707,1.707-2.56,1.707-4.267c0.853-2.56,3.413-3.413,5.973-4.267c2.56-0.853,5.12,0,6.827,1.707
			c0.853,0.853,1.707,0.853,2.56,1.707c4.267,2.56,5.973,7.68,3.413,11.947c-1.707,3.413-5.12,4.267-7.68,4.267
			C189.293,227.84,187.587,228.693,185.88,228.693z"/>
		<path style="fill:#FFE100;" d="M189.293,306.347c-2.56,0-5.973-1.707-7.68-4.267c-1.707-2.56-2.56-5.12-4.267-7.68
			c-1.707-4.267,0-9.387,4.267-11.093c4.267-1.707,9.387,0,11.093,4.267c0.853,2.56,1.707,4.267,3.413,6.827
			c2.56,4.267,0.853,9.387-3.413,11.947C191.853,306.347,190.147,306.347,189.293,306.347z M178.2,267.947
			c-4.267,0-8.533-3.413-8.533-8.533c0-0.853,0-2.56,0-3.413c0-1.707,0-3.413,0-5.12c0-5.12,4.267-8.533,9.387-7.68
			c5.12,0,8.533,4.267,7.68,9.387c0,1.707,0,2.56,0,4.267c0,0.853,0,1.707,0,3.413C186.733,263.68,183.32,267.947,178.2,267.947
			L178.2,267.947z"/>
		<path style="fill:#FFE100;" d="M254.147,349.013h-0.853c-2.56,0-5.973-0.853-8.533-1.707c-4.267-0.853-7.68-5.12-6.827-10.24
			c0.853-5.12,5.12-7.68,10.24-6.827c2.56,0.853,5.12,0.853,6.827,0.853c4.267,0.853,7.68,5.12,7.68,9.387
			C261.827,346.453,258.413,349.013,254.147,349.013z M285.72,347.307c-3.413,0-6.827-2.56-8.533-5.973
			c-0.853-4.267,1.707-9.387,5.973-10.24c2.56-0.853,4.267-1.707,6.827-2.56c4.267-1.707,9.387,0.853,11.093,5.12
			c1.707,4.267-0.853,9.387-5.12,11.093c-2.56,0.853-5.973,1.707-8.533,2.56C287.427,346.453,286.573,347.307,285.72,347.307z
			 M216.6,335.36c-1.707,0-3.413-0.853-5.12-1.707c-2.56-1.707-5.12-3.413-6.827-5.12c-3.413-2.56-4.267-8.533-0.853-11.947
			c2.56-3.413,8.533-4.267,11.947-0.853c1.707,1.707,3.413,2.56,5.973,4.267c4.267,2.56,5.12,7.68,2.56,11.947
			C221.72,334.507,219.16,335.36,216.6,335.36z M320.707,327.68c-2.56,0-4.267-0.853-5.973-2.56
			c-3.413-3.413-2.56-8.533,0.853-11.947c1.707-1.707,3.413-3.413,5.12-5.12c3.413-3.413,8.533-3.413,11.947-0.853
			c3.413,3.413,3.413,8.533,0.853,11.947c-1.707,2.56-4.267,4.267-5.973,5.973C324.973,326.827,323.267,327.68,320.707,327.68z
			 M343.747,294.4c-0.853,0-1.707,0-3.413-0.853c-4.267-1.707-6.827-6.827-5.12-11.093c0.853-2.56,1.707-4.267,2.56-6.827
			c0.853-4.267,5.973-6.827,10.24-5.973s6.827,5.973,5.973,10.24c-0.853,2.56-1.707,5.973-2.56,8.533
			C349.72,292.693,347.16,294.4,343.747,294.4z M348.013,255.147c-4.267,0-7.68-3.413-8.533-7.68c0-2.56-0.853-5.12-0.853-6.827
			c-0.853-4.267,1.707-9.387,6.827-10.24c4.267-0.853,9.387,1.707,10.24,6.827c0.853,2.56,0.853,5.973,1.707,8.533
			c0.853,4.267-2.56,8.533-7.68,9.387C348.867,255.147,348.867,255.147,348.013,255.147z M334.36,217.6
			c-2.56,0-5.12-1.707-6.827-3.413s-2.56-4.267-4.267-5.973c-2.56-3.413-2.56-9.387,1.707-11.947
			c3.413-2.56,9.387-2.56,11.947,1.707c1.707,2.56,3.413,4.267,5.12,6.827c2.56,4.267,1.707,9.387-2.56,11.947
			C337.773,216.747,336.067,217.6,334.36,217.6z M305.347,190.293c-1.707,0-2.56,0-4.267-0.853c-1.707-0.853-4.267-2.56-6.827-3.413
			c-4.267-1.707-5.973-6.827-4.267-11.093c1.707-4.267,6.827-5.973,11.093-4.267c2.56,0.853,5.12,2.56,7.68,4.267
			c4.267,2.56,5.12,7.68,3.413,11.947C311.32,188.587,308.76,190.293,305.347,190.293z M259.267,179.2
			c-4.267,0-8.533-3.413-8.533-7.68c0-5.12,3.413-8.533,7.68-9.387c1.707,0,3.413,0,5.12,0c0.853,0,2.56,0,3.413,0
			c5.12,0,8.533,4.267,8.533,8.533c0,5.12-4.267,8.533-8.533,8.533c-0.853,0-2.56,0-3.413,0
			C261.827,179.2,260.973,179.2,259.267,179.2L259.267,179.2z"/>
		<path style="fill:#FFE100;" d="M394.093,58.88c-1.707,0-4.267-0.853-5.12-1.707c-3.413-3.413-4.267-8.533-0.853-11.947
			c0.853-0.853,0.853-1.707,1.707-2.56c0.853-1.707,3.413-3.413,5.12-4.267c2.56-0.853,4.267,0,6.827,0.853l2.56,3.413
			c4.267,2.56,5.12,7.68,2.56,11.947c-1.707,2.56-5.12,4.267-8.533,3.413C396.653,58.88,395.8,58.88,394.093,58.88z"/>
		<path style="fill:#FFE100;" d="M374.467,68.267c-0.853,0-1.707,0-2.56,0c-4.267,0-8.533-4.267-7.68-9.387
			c0.853-5.12,4.267-8.533,9.387-7.68c0.853,0,1.707,0,3.413,0c4.267-0.853,8.533,2.56,9.387,7.68
			c0.853,4.267-2.56,8.533-7.68,9.387C377.027,68.267,375.32,68.267,374.467,68.267z M355.693,59.733
			c-2.56,0-4.267-0.853-5.973-2.56c-1.707-1.707-2.56-3.413-3.413-5.12c-2.56-4.267-0.853-9.387,2.56-11.947
			c3.413-2.56,8.533-0.853,11.093,2.56c0.853,0.853,0.853,1.707,1.707,2.56c3.413,3.413,2.56,8.533-0.853,11.947
			C359.107,58.88,357.4,59.733,355.693,59.733z"/>
		<path style="fill:#FFE100;" d="M349.72,36.693c-0.853,0-1.707,0-1.707,0c-3.413-0.853-5.973-4.267-6.827-7.68
			c-2.56-2.56-3.413-5.973-2.56-9.387c1.707-4.267,6.827-6.827,11.093-5.12c1.707,0.853,2.56,0.853,4.267,1.707
			c1.707,0.853,3.413,2.56,4.267,5.12c0.853,2.56,0.853,4.267,0,6.827c0,0.853-0.853,1.707-0.853,2.56
			C356.547,34.133,353.133,36.693,349.72,36.693z"/>
		<path style="fill:#FFE100;" d="M314.733,22.187c-0.853,0-0.853,0-1.707,0c-2.56-0.853-5.12-0.853-7.68-1.707
			c-4.267-0.853-7.68-5.12-6.827-10.24c0.853-4.267,5.12-7.68,10.24-6.827c2.56,0.853,5.973,0.853,8.533,1.707
			c4.267,0.853,7.68,5.12,6.827,10.24C322.413,19.627,319,22.187,314.733,22.187z M273.773,17.067L273.773,17.067
			c-3.413,0-5.973,0-8.533,0c-5.12,0-8.533-4.267-8.533-8.533c0-5.12,4.267-8.533,8.533-8.533c2.56,0,5.973,0,8.533,0
			c5.12,0,8.533,4.267,8.533,8.533C282.307,13.653,278.04,17.067,273.773,17.067z"/>
		<path style="fill:#FFE100;" d="M263.533,512c-5.12,0-8.533-3.413-8.533-8.533c0-5.12,3.413-8.533,8.533-8.533
			c2.56,0,5.12,0,7.68,0l0,0c4.267,0,8.533,3.413,8.533,8.533c0,5.12-3.413,8.533-8.533,8.533C269.507,512,266.947,512,263.533,512
			L263.533,512z M231.107,510.293h-0.853c-2.56,0-5.973-0.853-8.533-0.853c-4.267-0.853-7.68-5.12-6.827-9.387
			s5.12-7.68,9.387-6.827c2.56,0.853,5.12,0.853,7.68,0.853c4.267,0.853,7.68,5.12,7.68,9.387
			C238.787,506.88,235.373,510.293,231.107,510.293z M305.347,508.587c-4.267,0-7.68-2.56-8.533-6.827
			c-0.853-4.267,2.56-9.387,6.827-10.24c2.56-0.853,5.12-0.853,7.68-1.707c4.267-0.853,9.387,1.707,10.24,6.827
			c0.853,5.12-1.707,9.387-6.827,10.24c-2.56,0.853-5.973,0.853-8.533,1.707C306.2,508.587,305.347,508.587,305.347,508.587z
			 M190.147,500.907c-0.853,0-1.707,0-2.56,0c-2.56-0.853-5.12-1.707-8.533-2.56c-4.267-1.707-6.827-5.973-5.12-11.093
			c1.707-4.267,5.973-6.827,11.093-5.12c2.56,0.853,5.12,1.707,7.68,2.56c4.267,1.707,6.827,5.973,5.973,11.093
			C196.973,498.347,194.413,500.907,190.147,500.907z M345.453,497.493c-3.413,0-6.827-2.56-7.68-5.973
			c-1.707-4.267,0.853-9.387,5.12-11.093c2.56-0.853,5.12-1.707,7.68-2.56c4.267-1.707,9.387,0,11.093,5.12
			c1.707,4.267,0,9.387-5.12,11.093c-2.56,0.853-5.12,1.707-7.68,3.413C347.16,497.493,346.307,497.493,345.453,497.493z
			 M151.747,485.547c-1.707,0-2.56,0-4.267-0.853c-2.56-1.707-5.12-2.56-7.68-4.267c-4.267-2.56-5.973-7.68-3.413-11.947
			c2.56-4.267,7.68-5.973,11.947-3.413c2.56,1.707,5.12,2.56,6.827,3.413c4.267,1.707,5.973,7.68,3.413,11.093
			C157.72,483.84,155.16,485.547,151.747,485.547z M383,480.427c-2.56,0-5.973-1.707-7.68-4.267
			c-2.56-4.267-0.853-9.387,3.413-11.947c2.56-1.707,4.267-2.56,6.827-4.267c4.267-2.56,9.387-1.707,11.947,2.56
			c2.56,4.267,1.707,9.387-2.56,11.947c-2.56,1.707-5.12,3.413-7.68,4.267C385.56,479.573,383.853,480.427,383,480.427z
			 M116.76,463.36c-1.707,0-3.413-0.853-5.12-1.707c-2.56-1.707-4.267-3.413-6.827-5.12c-3.413-2.56-4.267-8.533-1.707-11.947
			c2.56-3.413,8.533-4.267,11.947-1.707c1.707,1.707,4.267,3.413,5.973,5.12c3.413,2.56,4.267,8.533,1.707,11.947
			C121.88,462.507,119.32,463.36,116.76,463.36z M416.28,456.533c-2.56,0-5.12-0.853-6.827-3.413
			c-3.413-3.413-2.56-9.387,0.853-11.947c1.707-1.707,4.267-3.413,5.973-5.12c3.413-3.413,8.533-2.56,11.947,0.853
			s2.56,8.533-0.853,11.947c-1.707,1.707-4.267,3.413-6.827,5.973C420.547,455.68,418.84,456.533,416.28,456.533z M85.187,436.053
			c-2.56,0-4.267-0.853-5.973-2.56s-4.267-4.267-5.973-5.973c-3.413-3.413-2.56-8.533,0.853-11.947
			c3.413-3.413,8.533-2.56,11.947,0.853c1.707,1.707,3.413,4.267,5.12,5.973c3.413,3.413,3.413,8.533,0,11.947
			C89.453,436.053,87.747,436.053,85.187,436.053z M445.293,426.667c-1.707,0-3.413-0.853-5.12-1.707
			c-3.413-3.413-4.267-8.533-0.853-11.947c1.707-1.707,3.413-4.267,5.12-5.973c2.56-3.413,8.533-4.267,11.947-1.707
			c3.413,2.56,4.267,8.533,1.707,11.947c-1.707,2.56-3.413,4.267-5.12,6.827C450.413,425.813,447.853,426.667,445.293,426.667z
			 M59.587,404.48c-2.56,0-5.12-1.707-6.827-3.413c-1.707-2.56-3.413-5.12-5.12-6.827c-2.56-4.267-1.707-10.24,2.56-12.8
			s9.387-1.707,11.947,2.56c1.707,2.56,2.56,4.267,4.267,6.827c2.56,4.267,1.707,9.387-2.56,11.947
			C63,403.627,61.293,404.48,59.587,404.48z M469.187,392.533c-1.707,0-2.56,0-4.267-0.853c-4.267-2.56-5.12-7.68-3.413-11.947
			c1.707-2.56,2.56-4.267,3.413-6.827c2.56-4.267,7.68-5.973,11.093-3.413c4.267,2.56,5.973,7.68,3.413,11.093
			c-1.707,2.56-2.56,5.12-4.267,7.68C475.16,390.827,471.747,392.533,469.187,392.533z M39.107,368.64
			c-3.413,0-5.973-1.707-7.68-5.12c-0.853-2.56-2.56-5.12-3.413-7.68c-1.707-4.267,0-9.387,4.267-11.093s9.387,0,11.093,4.267
			c0.853,2.56,1.707,5.12,3.413,7.68c1.707,4.267,0,9.387-4.267,11.093C41.667,367.787,39.96,368.64,39.107,368.64z
			 M486.253,354.987c-0.853,0-1.707,0-2.56-0.853c-4.267-1.707-6.827-6.827-5.12-11.093c0.853-2.56,1.707-5.12,2.56-7.68
			c1.707-4.267,5.973-6.827,11.093-5.12c4.267,1.707,6.827,5.973,5.12,11.093c-0.853,2.56-1.707,5.12-2.56,7.68
			C493.08,353.28,489.667,354.987,486.253,354.987z M24.6,329.387c-3.413,0-6.827-2.56-8.533-5.973
			c-0.853-2.56-1.707-5.12-1.707-8.533c-0.853-4.267,1.707-9.387,5.973-10.24c4.267-0.853,9.387,1.707,10.24,5.973
			c0.853,2.56,1.707,5.12,2.56,7.68c0.853,4.267-1.707,9.387-5.973,10.24C26.307,329.387,25.453,329.387,24.6,329.387z
			 M497.347,314.88c-0.853,0-0.853,0-1.707,0c-4.267-0.853-7.68-5.12-6.827-10.24c0.853-2.56,0.853-5.12,1.707-7.68
			c0.853-4.267,5.12-7.68,9.387-6.827c4.267,0.853,7.68,5.12,6.827,9.387c-0.853,2.56-0.853,5.973-1.707,8.533
			C505.027,312.32,501.613,314.88,497.347,314.88z M16.92,288.427c-4.267,0-7.68-3.413-8.533-7.68c0-2.56-0.853-5.973-0.853-8.533
			c0-5.12,3.413-8.533,7.68-9.387c5.12,0,8.533,3.413,9.387,7.68c0,2.56,0,5.12,0.853,7.68
			C26.307,284.16,22.893,288.427,16.92,288.427C17.773,288.427,17.773,288.427,16.92,288.427z M502.467,273.92L502.467,273.92
			c-5.12,0-8.533-4.267-8.533-8.533c0-2.56,0-5.12,0-7.68c0-5.12,3.413-8.533,8.533-8.533l0,0c5.12,0,8.533,4.267,8.533,8.533
			c0,2.56,0,5.973,0,8.533C511,270.507,506.733,273.92,502.467,273.92z M16.92,247.467C16.067,247.467,16.067,247.467,16.92,247.467
			c-5.12,0-8.533-4.267-8.533-9.387c0-2.56,0.853-5.973,0.853-8.533c0.853-4.267,4.267-8.533,9.387-7.68
			c4.267,0.853,7.68,4.267,7.68,9.387c0,2.56-0.853,5.12-0.853,7.68C24.6,244.053,21.187,247.467,16.92,247.467z M500.76,232.96
			c-4.267,0-7.68-3.413-8.533-7.68c0-2.56-0.853-5.12-0.853-7.68c-0.853-4.267,2.56-9.387,7.68-9.387
			c4.267-0.853,9.387,2.56,9.387,7.68c0,2.56,0.853,5.973,0.853,8.533c0.853,4.267-2.56,8.533-7.68,9.387
			C501.613,232.96,500.76,232.96,500.76,232.96z M22.893,206.507c-0.853,0-1.707,0-1.707,0c-5.12-1.707-7.68-5.973-6.827-11.093
			c0.853-2.56,1.707-5.973,2.56-8.533c0.853-4.267,5.973-6.827,10.24-5.973c5.12,1.707,7.68,6.827,5.973,11.093
			c-0.853,2.56-1.707,5.12-1.707,7.68C30.573,203.947,27.16,206.507,22.893,206.507z M493.08,192c-3.413,0-6.827-2.56-8.533-5.973
			c-0.853-2.56-1.707-5.12-2.56-7.68c-1.707-4.267,0.853-9.387,5.973-10.24c4.267-1.707,9.387,0.853,10.24,5.973
			c0.853,2.56,1.707,5.12,2.56,8.533c0.853,4.267-1.707,9.387-5.973,10.24C494.787,192,493.933,192,493.08,192z M35.693,167.253
			c-0.853,0-2.56,0-3.413-0.853c-4.267-1.707-5.973-6.827-4.267-11.093c0.853-2.56,2.56-5.12,3.413-7.68
			c1.707-4.267,6.827-5.973,11.093-4.267c4.267,1.707,5.973,6.827,4.267,11.093c-0.853,2.56-2.56,5.12-3.413,7.68
			C42.52,164.693,39.107,167.253,35.693,167.253z M479.427,152.747c-3.413,0-5.973-1.707-7.68-5.12
			c-0.853-2.56-2.56-5.12-3.413-7.68c-1.707-4.267,0-9.387,4.267-11.093c4.267-1.707,9.387,0,11.093,4.267
			c0.853,2.56,2.56,5.12,3.413,7.68c1.707,4.267,0,9.387-4.267,11.093C481.987,152.747,481.133,152.747,479.427,152.747z
			 M55.32,130.56c-1.707,0-3.413-0.853-4.267-1.707c-4.267-2.56-5.12-7.68-2.56-11.947c1.707-2.56,3.413-5.12,5.12-6.827
			c2.56-4.267,7.68-5.12,11.947-2.56c3.413,3.413,4.267,8.533,1.707,11.947c-1.707,2.56-3.413,4.267-4.267,6.827
			C61.293,128.853,58.733,130.56,55.32,130.56z M458.947,116.907c-2.56,0-5.12-1.707-6.827-3.413
			c-1.707-2.56-3.413-4.267-4.267-6.827c-2.56-3.413-1.707-9.387,1.707-11.947c3.413-2.56,9.387-1.707,11.947,1.707
			c1.707,2.56,3.413,4.267,5.12,6.827c2.56,4.267,1.707,9.387-2.56,11.947C462.36,116.053,460.653,116.907,458.947,116.907z
			 M80.92,97.28c-1.707,0-4.267-0.853-5.973-2.56c-3.413-3.413-3.413-8.533-0.853-11.947c2.56-1.707,4.267-3.413,5.973-5.973
			c3.413-3.413,8.533-3.413,11.947,0s3.413,8.533,0,11.947c-1.707,1.707-3.413,4.267-5.12,5.973
			C85.187,96.427,83.48,97.28,80.92,97.28z M432.493,84.48c-2.56,0-4.267-0.853-5.973-2.56c-1.707-1.707-3.413-3.413-5.973-5.12
			c-3.413-3.413-3.413-8.533,0-11.947c3.413-3.413,8.533-3.413,11.947-0.853c1.707,2.56,4.267,4.267,5.973,5.973
			c3.413,3.413,3.413,8.533,0,11.947C436.76,83.627,435.053,84.48,432.493,84.48z M111.64,69.12c-2.56,0-5.12-0.853-6.827-3.413
			c-2.56-3.413-2.56-9.387,1.707-11.947c2.56-1.707,4.267-3.413,6.827-5.12c3.413-2.56,9.387-1.707,11.947,1.707
			c2.56,4.267,1.707,9.387-2.56,12.8c-2.56,1.707-4.267,3.413-5.973,5.12C115.053,69.12,113.347,69.12,111.64,69.12z
			 M145.773,46.933c-3.413,0-5.973-1.707-7.68-4.267c-2.56-4.267-0.853-9.387,3.413-11.947c2.56-1.707,5.12-2.56,7.68-4.267
			c4.267-1.707,9.387,0,11.093,3.413c1.707,4.267,0,9.387-3.413,11.093c-2.56,0.853-5.12,2.56-6.827,3.413
			C148.333,46.08,147.48,46.933,145.773,46.933z M184.173,29.867c-3.413,0-6.827-2.56-7.68-5.973
			c-1.707-4.267,0.853-9.387,5.12-11.093c2.56-0.853,5.12-1.707,8.533-2.56c4.267-1.707,9.387,0.853,10.24,5.973
			c1.707,4.267-0.853,9.387-5.973,10.24c-2.56,0.853-5.12,1.707-7.68,2.56C185.88,29.867,185.027,29.867,184.173,29.867z
			 M224.28,20.48c-4.267,0-7.68-2.56-8.533-6.827s2.56-9.387,6.827-9.387c2.56-0.853,5.973-0.853,8.533-0.853
			c4.267-0.853,8.533,2.56,9.387,7.68c0.853,4.267-2.56,8.533-7.68,9.387c-2.56,0-5.12,0.853-7.68,0.853
			C225.133,20.48,224.28,20.48,224.28,20.48z"/>
		<path style="fill:#FFE100;" d="M383,373.76c-1.707,0-4.267-0.853-5.973-2.56c-0.853-0.853-1.707-0.853-2.56-1.707
			c-4.267-2.56-5.12-7.68-2.56-11.947c1.707-3.413,5.973-4.267,9.387-3.413c3.413-1.707,6.827-0.853,9.387,0.853
			c3.413,3.413,4.267,8.533,0.853,11.947c-0.853,0.853-1.707,2.56-3.413,3.413C387.267,372.907,385.56,373.76,383,373.76z"/>
		<path style="fill:#FFE100;" d="M404.333,343.893c-1.707,0-2.56,0-4.267-0.853c-4.267-2.56-5.12-7.68-3.413-11.947
			c0.853-2.56,2.56-4.267,3.413-6.827c1.707-4.267,7.68-5.973,11.093-3.413c4.267,1.707,5.973,7.68,3.413,11.093
			c-0.853,2.56-2.56,5.12-4.267,7.68C410.307,343.04,407.747,343.893,404.333,343.893z M419.693,307.2c-0.853,0-1.707,0-2.56,0
			c-4.267-0.853-6.827-5.973-5.973-10.24c0.853-2.56,1.707-5.12,1.707-7.68c0.853-4.267,5.973-7.68,10.24-6.827
			c4.267,0.853,7.68,5.973,6.827,10.24c-0.853,2.56-1.707,5.12-1.707,8.533C427.373,304.64,423.96,307.2,419.693,307.2z"/>
		<path style="fill:#FFE100;" d="M263.533,426.667h-1.707c-5.12,0-8.533-4.267-8.533-8.533c0-5.12,4.267-8.533,8.533-8.533h1.707
			c1.707,0,4.267,0,5.973,0c5.12,0,8.533,3.413,8.533,8.533s-3.413,8.533-8.533,8.533
			C267.8,426.667,266.093,426.667,263.533,426.667z M230.253,423.253c-0.853,0-0.853,0-1.707,0c-2.56-0.853-5.12-0.853-8.533-1.707
			c-4.267-0.853-7.68-5.973-5.973-10.24c0.853-4.267,5.973-7.68,10.24-5.973c2.56,0.853,5.12,0.853,7.68,1.707
			c4.267,0.853,7.68,5.12,6.827,10.24C237.933,420.693,233.667,423.253,230.253,423.253z M301.933,422.4
			c-3.413,0-7.68-2.56-8.533-6.827c-0.853-4.267,1.707-9.387,5.973-10.24c2.56-0.853,5.12-0.853,7.68-1.707
			c4.267-1.707,9.387,0.853,10.24,5.973c0.853,5.12-0.853,9.387-5.973,10.24c-2.56,0.853-5.12,1.707-8.533,2.56
			C303.64,421.547,302.787,422.4,301.933,422.4z M191.853,410.453c-0.853,0-2.56,0-3.413-0.853c-2.56-0.853-5.12-2.56-7.68-4.267
			c-4.267-2.56-5.973-7.68-3.413-11.947c2.56-4.267,7.68-5.973,11.947-3.413c2.56,0.853,4.267,2.56,6.827,3.413
			c4.267,1.707,5.973,6.827,4.267,11.093C198.68,408.747,195.267,410.453,191.853,410.453z M158.573,388.267
			c-1.707,0-4.267-0.853-5.12-1.707c-2.56-1.707-4.267-3.413-5.973-5.973c-3.413-3.413-3.413-8.533,0-11.947
			c3.413-3.413,8.533-3.413,11.947,0c1.707,1.707,3.413,3.413,5.973,5.12c3.413,3.413,4.267,8.533,0.853,11.947
			C163.693,387.413,161.133,388.267,158.573,388.267z M131.267,358.4c-2.56,0-5.12-0.853-6.827-3.413
			c-1.707-2.56-3.413-4.267-5.12-6.827c-2.56-4.267-1.707-9.387,2.56-11.947c4.267-2.56,9.387-1.707,11.947,2.56
			c1.707,2.56,2.56,4.267,4.267,5.973c2.56,3.413,1.707,9.387-1.707,11.947C134.68,357.547,132.973,358.4,131.267,358.4z
			 M112.493,323.413c-3.413,0-6.827-1.707-7.68-5.12c-0.853-2.56-1.707-5.12-2.56-7.68c-1.707-4.267,0.853-9.387,5.12-11.093
			c4.267-1.707,9.387,0.853,11.093,5.12c0.853,2.56,1.707,5.12,2.56,6.827c1.707,4.267-0.853,9.387-5.12,11.093
			C114.2,322.56,113.347,323.413,112.493,323.413z M102.253,284.16c-4.267,0-7.68-3.413-8.533-7.68c0-2.56-0.853-5.973-0.853-8.533
			c0-5.12,3.413-8.533,7.68-9.387c4.267,0,8.533,3.413,9.387,7.68c0,2.56,0,5.12,0.853,7.68c0.853,4.267-2.56,8.533-7.68,9.387
			C103.107,284.16,103.107,284.16,102.253,284.16z M425.667,267.093L425.667,267.093c-5.12,0-8.533-4.267-8.533-8.533V256
			c0-1.707,0-3.413,0-5.12c0-5.12,3.413-8.533,8.533-8.533c4.267,0,8.533,3.413,8.533,8.533c0,1.707,0,3.413,0,5.973v2.56
			C434.2,263.68,429.933,267.093,425.667,267.093z M103.107,244.053h-0.853c-4.267-0.853-7.68-5.12-7.68-9.387
			c0-2.56,0.853-5.973,1.707-8.533c0.853-4.267,5.12-7.68,10.24-6.827c4.267,0.853,7.68,5.12,6.827,10.24
			c-0.853,2.56-0.853,5.12-0.853,7.68C110.787,240.64,107.373,244.053,103.107,244.053z M421.4,226.987
			c-4.267,0-7.68-2.56-8.533-6.827c-0.853-2.56-0.853-5.12-1.707-7.68c-1.707-4.267,1.707-9.387,5.973-10.24
			c4.267-1.707,9.387,1.707,10.24,5.973c0.853,2.56,1.707,5.12,2.56,8.533c0.853,4.267-1.707,9.387-5.973,10.24
			C422.253,226.987,422.253,226.987,421.4,226.987z M112.493,204.8c-0.853,0-1.707,0-3.413-0.853
			c-4.267-1.707-6.827-6.827-5.12-11.093c0.853-2.56,2.56-5.12,3.413-7.68c1.707-4.267,6.827-5.973,11.093-4.267
			c4.267,1.707,5.973,6.827,4.267,11.093c-0.853,2.56-1.707,4.267-2.56,6.827C119.32,203.093,115.907,204.8,112.493,204.8z
			 M407.747,189.44c-3.413,0-5.973-1.707-7.68-4.267c-0.853-2.56-2.56-4.267-3.413-6.827c-2.56-4.267-0.853-9.387,3.413-11.947
			s9.387-0.853,11.947,3.413c1.707,2.56,2.56,5.12,4.267,7.68c2.56,4.267,0.853,9.387-3.413,11.093
			C410.307,189.44,408.6,189.44,407.747,189.44z M132.12,169.813c-1.707,0-3.413-0.853-5.12-1.707
			c-3.413-2.56-4.267-7.68-1.707-11.947c1.707-2.56,3.413-4.267,5.12-6.827c2.56-3.413,8.533-4.267,11.947-1.707
			c3.413,2.56,4.267,8.533,1.707,11.947c-1.707,1.707-3.413,4.267-4.267,5.973C137.24,168.96,134.68,169.813,132.12,169.813z
			 M384.707,157.013c-2.56,0-4.267-0.853-5.973-2.56c-1.707-1.707-3.413-3.413-5.12-5.973c-3.413-3.413-3.413-8.533,0-11.947
			c3.413-3.413,8.533-3.413,11.947,0c1.707,1.707,4.267,4.267,5.973,5.973c3.413,3.413,2.56,8.533-0.853,11.947
			C388.12,156.16,386.413,157.013,384.707,157.013z M159.427,139.947c-2.56,0-5.12-0.853-6.827-3.413
			c-3.413-3.413-2.56-9.387,0.853-11.947c2.56-1.707,4.267-3.413,6.827-5.12c3.413-2.56,9.387-1.707,11.947,1.707
			s1.707,9.387-1.707,11.947c-1.707,1.707-4.267,3.413-5.973,5.12C163.693,139.947,161.133,139.947,159.427,139.947z
			 M353.987,130.56c-1.707,0-3.413-0.853-5.12-1.707c-1.707-1.707-4.267-2.56-6.827-4.267c-4.267-2.56-5.12-7.68-2.56-11.947
			c2.56-4.267,7.68-5.12,11.947-2.56c2.56,1.707,5.12,3.413,6.827,4.267c4.267,2.56,5.12,7.68,2.56,11.947
			C359.96,128.853,356.547,130.56,353.987,130.56z M192.707,118.613c-3.413,0-5.973-1.707-7.68-5.12
			c-1.707-4.267,0-9.387,4.267-11.093c2.56-0.853,5.12-2.56,7.68-3.413c4.267-1.707,9.387,0,11.093,4.267
			c1.707,4.267,0,9.387-4.267,11.093c-2.56,0.853-4.267,1.707-6.827,3.413C195.267,118.613,194.413,118.613,192.707,118.613z
			 M318.147,111.787c-0.853,0-1.707,0-2.56-0.853c-2.56-0.853-5.12-1.707-6.827-2.56c-4.267-1.707-6.827-5.973-5.973-10.24
			c1.707-4.267,5.973-6.827,10.24-5.973c2.56,0.853,5.12,1.707,7.68,2.56c4.267,1.707,6.827,6.827,5.12,11.093
			C324.973,110.08,321.56,111.787,318.147,111.787z M231.107,105.813c-4.267,0-7.68-2.56-8.533-6.827
			c-0.853-4.267,1.707-9.387,6.827-10.24c2.56-0.853,5.12-0.853,8.533-1.707c4.267-0.853,9.387,2.56,9.387,6.827
			c0.853,4.267-2.56,9.387-6.827,9.387c-2.56,0-5.12,0.853-7.68,1.707C231.96,105.813,231.96,105.813,231.107,105.813z
			 M278.893,103.253L278.893,103.253c-3.413,0-5.973-0.853-8.533-0.853c-5.12,0-8.533-4.267-8.533-8.533
			c0-5.12,4.267-8.533,8.533-8.533c2.56,0,5.973,0,8.533,0.853c4.267,0.853,8.533,4.267,7.68,9.387
			C287.427,99.84,284.013,103.253,278.893,103.253z"/>
		<path style="fill:#FFE100;" d="M340.333,407.04c-3.413,0-5.973-1.707-7.68-4.267c-1.707-3.413-0.853-6.827,0.853-9.387
			c0-3.413,1.707-6.827,5.12-8.533c4.267-1.707,9.387,0.853,11.093,5.12c0,0.853,0.853,1.707,0.853,2.56
			c2.56,4.267,0.853,9.387-3.413,11.947c-1.707,0.853-2.56,1.707-4.267,2.56C342.893,407.04,341.187,407.04,340.333,407.04z"/>
		<path style="fill:#FFE100;" d="M342.04,383.147c-0.853,0-1.707,0-2.56-0.853c-4.267-1.707-6.827-6.827-5.12-11.093
			c0.853-1.707,1.707-3.413,2.56-5.12c2.56-4.267,7.68-5.12,11.947-2.56c4.267,2.56,5.12,7.68,2.56,11.947
			c-0.853,0.853-0.853,1.707-1.707,2.56C348.867,381.44,345.453,383.147,342.04,383.147z M357.4,368.64
			c-3.413,0-6.827-2.56-7.68-5.973c-1.707-4.267,0.853-9.387,5.12-11.093c1.707-0.853,4.267-0.853,5.973-1.707
			c4.267-0.853,9.387,2.56,9.387,6.827c0.853,4.267-2.56,9.387-6.827,9.387c-0.853,0-1.707,0-2.56,0.853
			C359.96,367.787,359.107,368.64,357.4,368.64z"/>
	</g>
	<g>
		<path style="fill:#FDCC00;" d="M220.867,196.267c0-14.507-11.093-25.6-25.6-25.6s-25.6,11.093-25.6,25.6s11.093,25.6,25.6,25.6
			S220.867,210.773,220.867,196.267"/>
		<path style="fill:#FDCC00;" d="M383,384c0-14.507-11.093-25.6-25.6-25.6s-25.6,11.093-25.6,25.6c0,14.507,11.093,25.6,25.6,25.6
			S383,398.507,383,384"/>
		<path style="fill:#FDCC00;" d="M391.533,34.133c0-14.507-11.093-25.6-25.6-25.6s-25.6,11.093-25.6,25.6s11.093,25.6,25.6,25.6
			S391.533,48.64,391.533,34.133"/>
		<path style="fill:#FDCC00;" d="M280.6,256c0-14.507-11.093-25.6-25.6-25.6c-14.507,0-25.6,11.093-25.6,25.6
			c0,14.507,11.093,25.6,25.6,25.6C269.507,281.6,280.6,270.507,280.6,256"/>
	</g>
	<path d="M195.267,230.4c-18.773,0-34.133-15.36-34.133-34.133s15.36-34.133,34.133-34.133s34.133,15.36,34.133,34.133
		S214.04,230.4,195.267,230.4z M195.267,179.2c-9.387,0-17.067,7.68-17.067,17.067s7.68,17.067,17.067,17.067
		s17.067-7.68,17.067-17.067S204.653,179.2,195.267,179.2z"/>
	<path d="M357.4,418.133c-18.773,0-34.133-15.36-34.133-34.133c0-18.773,15.36-34.133,34.133-34.133s34.133,15.36,34.133,34.133
		C391.533,402.773,376.173,418.133,357.4,418.133z M357.4,366.933c-9.387,0-17.067,7.68-17.067,17.067s7.68,17.067,17.067,17.067
		s17.067-7.68,17.067-17.067S366.787,366.933,357.4,366.933z"/>
	<path d="M365.933,68.267c-18.773,0-34.133-15.36-34.133-34.133S347.16,0,365.933,0s34.133,15.36,34.133,34.133
		S384.707,68.267,365.933,68.267z M365.933,17.067c-9.387,0-17.067,7.68-17.067,17.067s7.68,17.067,17.067,17.067
		S383,43.52,383,34.133S375.32,17.067,365.933,17.067z"/>
	<path d="M255,290.133c-18.773,0-34.133-15.36-34.133-34.133s15.36-34.133,34.133-34.133s34.133,15.36,34.133,34.133
		S273.773,290.133,255,290.133z M255,238.933c-9.387,0-17.067,7.68-17.067,17.067c0,9.387,7.68,17.067,17.067,17.067
		s17.067-7.68,17.067-17.067C272.067,246.613,264.387,238.933,255,238.933z"/>
	<path d="M217.453,192.853c-3.413,0-5.973-1.707-7.68-4.267c-0.853-0.853-0.853-1.707-1.707-2.56
		c-1.707-1.707-2.56-4.267-1.707-6.827c0.853-2.56,2.56-4.267,4.267-5.973c1.707-0.853,2.56-1.707,4.267-1.707
		c4.267-1.707,9.387,0,11.093,4.267c1.707,2.56,0.853,5.973-0.853,8.533c0,3.413-1.707,6.827-4.267,7.68
		C220.867,192,219.16,192.853,217.453,192.853z"/>
	<path d="M201.24,229.547c-4.267,0-7.68-2.56-8.533-6.827s1.707-9.387,5.973-10.24c0.853,0,1.707-0.853,2.56-0.853
		c4.267-1.707,9.387,0,11.093,4.267c1.707,4.267,0,9.387-4.267,11.093c-1.707,0.853-4.267,1.707-5.973,1.707
		C202.947,229.547,202.093,229.547,201.24,229.547z M218.307,215.04c-0.853,0-2.56,0-3.413-0.853
		c-4.267-1.707-5.973-6.827-4.267-11.093c0-0.853,0.853-1.707,0.853-2.56c0.853-4.267,5.973-7.68,10.24-5.973
		c4.267,0.853,7.68,5.973,5.973,10.24c-0.853,1.707-0.853,4.267-1.707,5.973C225.133,213.333,221.72,215.04,218.307,215.04z"/>
	<path d="M177.347,228.693c-0.853,0-2.56,0-3.413-0.853c-4.267-1.707-5.973-6.827-4.267-11.093c0.853-1.707,1.707-2.56,1.707-4.267
		c0.853-2.56,3.413-3.413,5.973-4.267c2.56-0.853,5.12,0,6.827,1.707c0.853,0.853,1.707,0.853,2.56,1.707
		c4.267,2.56,5.973,7.68,3.413,11.947c-1.707,3.413-5.12,4.267-7.68,4.267C180.76,227.84,179.053,228.693,177.347,228.693z"/>
	<path d="M180.76,306.347c-2.56,0-5.973-1.707-7.68-4.267c-1.707-2.56-2.56-5.12-4.267-7.68c-1.707-4.267,0-9.387,4.267-11.093
		c4.267-1.707,9.387,0,11.093,4.267c0.853,2.56,1.707,4.267,3.413,6.827c2.56,4.267,0.853,9.387-3.413,11.947
		C183.32,306.347,181.613,306.347,180.76,306.347z M169.667,267.947c-4.267,0-8.533-3.413-8.533-8.533c0-0.853,0-2.56,0-3.413
		c0-1.707,0-3.413,0-5.12c0-5.12,4.267-8.533,9.387-7.68c5.12,0,8.533,4.267,7.68,9.387c0,1.707,0,2.56,0,4.267
		c0,0.853,0,1.707,0,3.413C178.2,263.68,174.787,267.947,169.667,267.947L169.667,267.947z"/>
	<path d="M245.613,349.013h-0.853c-2.56,0-5.973-0.853-8.533-1.707c-4.267-0.853-7.68-5.12-6.827-10.24s5.12-7.68,10.24-6.827
		c2.56,0.853,5.12,0.853,6.827,0.853c4.267,0.853,7.68,5.12,7.68,9.387C253.293,346.453,249.88,349.013,245.613,349.013z
		 M277.187,347.307c-3.413,0-6.827-2.56-8.533-5.973c-0.853-4.267,1.707-9.387,5.973-10.24c2.56-0.853,4.267-1.707,6.827-2.56
		c4.267-1.707,9.387,0.853,11.093,5.12c1.707,4.267-0.853,9.387-5.12,11.093c-2.56,0.853-5.973,1.707-8.533,2.56
		C278.893,346.453,278.04,347.307,277.187,347.307z M208.067,335.36c-1.707,0-3.413-0.853-5.12-1.707
		c-2.56-1.707-5.12-3.413-6.827-5.12c-3.413-2.56-4.267-8.533-0.853-11.947c2.56-3.413,8.533-4.267,11.947-0.853
		c1.707,1.707,3.413,2.56,5.973,4.267c4.267,2.56,5.12,7.68,2.56,11.947C213.187,334.507,210.627,335.36,208.067,335.36z
		 M312.173,327.68c-2.56,0-4.267-0.853-5.973-2.56c-3.413-3.413-2.56-8.533,0.853-11.947c1.707-1.707,3.413-3.413,5.12-5.12
		c3.413-3.413,8.533-3.413,11.947-0.853c3.413,3.413,3.413,8.533,0.853,11.947c-1.707,2.56-4.267,4.267-5.973,5.973
		C316.44,326.827,314.733,327.68,312.173,327.68z M335.213,294.4c-0.853,0-1.707,0-3.413-0.853
		c-4.267-1.707-6.827-6.827-5.12-11.093c0.853-2.56,1.707-4.267,2.56-6.827c0.853-4.267,5.973-6.827,10.24-5.973
		s6.827,5.973,5.973,10.24c-0.853,2.56-1.707,5.973-2.56,8.533C341.187,292.693,338.627,294.4,335.213,294.4z M339.48,255.147
		c-4.267,0-7.68-3.413-8.533-7.68c0-2.56-0.853-5.12-0.853-6.827c-0.853-4.267,1.707-9.387,6.827-10.24
		c4.267-0.853,9.387,1.707,10.24,6.827c0.853,2.56,0.853,5.973,1.707,8.533c0.853,4.267-2.56,8.533-7.68,9.387
		C340.333,255.147,340.333,255.147,339.48,255.147z M325.827,217.6c-2.56,0-5.12-1.707-6.827-3.413
		c-1.707-1.707-2.56-4.267-4.267-5.973c-2.56-3.413-2.56-9.387,1.707-11.947c3.413-2.56,9.387-2.56,11.947,1.707
		c1.707,2.56,3.413,4.267,5.12,6.827c2.56,4.267,1.707,9.387-2.56,11.947C329.24,216.747,327.533,217.6,325.827,217.6z
		 M296.813,190.293c-1.707,0-2.56,0-4.267-0.853s-4.267-2.56-6.827-3.413c-4.267-1.707-5.973-6.827-4.267-11.093
		c1.707-4.267,6.827-5.973,11.093-4.267c2.56,0.853,5.12,2.56,7.68,4.267c4.267,2.56,5.12,7.68,3.413,11.947
		C302.787,188.587,300.227,190.293,296.813,190.293z M250.733,179.2c-4.267,0-8.533-3.413-8.533-7.68c0-5.12,3.413-8.533,7.68-9.387
		c1.707,0,3.413,0,5.12,0c0.853,0,2.56,0,3.413,0c5.12,0,8.533,4.267,8.533,8.533c0,5.12-4.267,8.533-8.533,8.533
		c-0.853,0-2.56,0-3.413,0C253.293,179.2,252.44,179.2,250.733,179.2L250.733,179.2z"/>
	<path d="M385.56,58.88c-1.707,0-4.267-0.853-5.12-1.707c-3.413-3.413-4.267-8.533-0.853-11.947c0.853-0.853,0.853-1.707,1.707-2.56
		c0.853-1.707,3.413-3.413,5.12-4.267c2.56-0.853,4.267,0,6.827,0.853c0.853,0.853,2.56,1.707,3.413,2.56
		c4.267,2.56,5.12,7.68,2.56,11.947c-1.707,2.56-5.12,4.267-8.533,3.413C388.12,58.88,387.267,58.88,385.56,58.88z"/>
	<path d="M365.933,68.267c-0.853,0-1.707,0-2.56,0c-4.267,0-8.533-4.267-7.68-9.387c0.853-5.12,4.267-8.533,9.387-7.68
		c0.853,0,1.707,0,3.413,0c4.267-0.853,8.533,2.56,9.387,7.68c0.853,4.267-2.56,8.533-7.68,9.387
		C368.493,68.267,366.787,68.267,365.933,68.267z M347.16,59.733c-2.56,0-4.267-0.853-5.973-2.56
		c-1.707-1.707-2.56-3.413-3.413-5.12c-2.56-4.267-0.853-9.387,2.56-11.947c3.413-2.56,8.533-0.853,11.093,2.56
		c0.853,0.853,0.853,1.707,1.707,2.56c3.413,3.413,2.56,8.533-0.853,11.947C350.573,58.88,348.867,59.733,347.16,59.733z"/>
	<path d="M341.187,36.693c-0.853,0-1.707,0-1.707,0c-3.413-0.853-5.973-4.267-6.827-7.68c-2.56-2.56-3.413-5.973-2.56-9.387
		c1.707-4.267,6.827-6.827,11.093-5.12c1.707,0.853,2.56,0.853,4.267,1.707c1.707,0.853,3.413,2.56,4.267,5.12
		c0.853,2.56,0.853,4.267,0,6.827c0,0.853-0.853,1.707-0.853,2.56C348.013,34.133,344.6,36.693,341.187,36.693z"/>
	<path d="M306.2,22.187c-0.853,0-0.853,0-1.707,0c-2.56-0.853-5.12-0.853-7.68-1.707c-5.12-0.853-7.68-5.12-7.68-9.387
		c0.853-4.267,5.12-7.68,10.24-6.827c2.56,0.853,5.973,0.853,8.533,1.707c4.267,0.853,7.68,5.12,6.827,10.24
		C313.88,19.627,310.467,22.187,306.2,22.187z M264.387,17.067L264.387,17.067c-3.413,0-5.973,0-8.533,0
		c-5.12,0-8.533-4.267-8.533-8.533c0-5.12,4.267-8.533,8.533-8.533l0,0c2.56,0,5.973,0,8.533,0c5.12,0,8.533,4.267,8.533,8.533
		C272.92,13.653,269.507,17.067,264.387,17.067z"/>
	<path d="M260.973,512c-4.267,0-8.533-3.413-8.533-8.533c0-5.12,3.413-8.533,8.533-8.533c2.56,0,5.12,0,7.68,0
		c4.267,0,8.533,3.413,9.387,7.68c0,5.12-3.413,8.533-7.68,9.387C266.947,512,264.387,512,260.973,512L260.973,512z
		 M227.693,510.293h-0.853c-2.56,0-5.973-0.853-8.533-0.853c-4.267-0.853-7.68-5.12-6.827-9.387s5.12-7.68,9.387-6.827
		c2.56,0,5.12,0.853,7.68,0.853c4.267,0.853,7.68,5.12,7.68,9.387C235.373,506.88,231.96,510.293,227.693,510.293z M302.787,507.733
		c-4.267,0-7.68-2.56-8.533-6.827c-0.853-4.267,1.707-9.387,6.827-10.24c2.56-0.853,5.12-0.853,7.68-1.707
		c4.267-0.853,9.387,1.707,10.24,5.973c0.853,4.267-1.707,9.387-5.973,10.24c-2.56,0.853-5.973,0.853-8.533,1.707
		C303.64,507.733,302.787,507.733,302.787,507.733z M186.733,502.613c-0.853,0-1.707,0-2.56,0c-2.56-0.853-5.12-1.707-8.533-2.56
		c-4.267-1.707-6.827-5.973-5.12-11.093c1.707-5.12,5.973-6.827,11.093-5.12c2.56,0.853,5.12,1.707,7.68,2.56
		c4.267,1.707,6.827,5.973,5.973,10.24C193.56,500.053,190.147,502.613,186.733,502.613z M342.893,495.787
		c-3.413,0-6.827-1.707-7.68-5.12c-1.707-4.267,0.853-9.387,5.12-11.093c2.56-0.853,5.12-1.707,7.68-3.413
		c4.267-1.707,9.387,0,11.093,4.267c1.707,4.267,0,9.387-4.267,11.093c-2.56,0.853-5.12,2.56-7.68,3.413
		C344.6,495.787,343.747,495.787,342.893,495.787z M147.48,487.253c-0.853,0-2.56,0-3.413-0.853c-2.56-0.853-5.12-2.56-7.68-4.267
		c-4.267-2.56-5.973-7.68-3.413-11.093c2.56-4.267,7.68-5.973,11.093-3.413c2.56,0.853,5.12,2.56,6.827,3.413
		c4.267,1.707,5.973,6.827,4.267,11.093C154.307,485.547,150.893,487.253,147.48,487.253z M380.44,477.867
		c-2.56,0-5.973-1.707-7.68-4.267c-2.56-4.267-0.853-9.387,3.413-11.947c2.56-1.707,4.267-2.56,6.827-4.267
		c4.267-2.56,9.387-1.707,11.947,2.56c2.56,4.267,1.707,9.387-2.56,11.947c-2.56,1.707-5.12,3.413-7.68,4.267
		C383,477.867,382.147,477.867,380.44,477.867z M111.64,466.773c-1.707,0-3.413-0.853-5.12-1.707
		c-2.56-1.707-4.267-3.413-6.827-5.12c-3.413-2.56-4.267-8.533-1.707-11.947c2.56-3.413,8.533-4.267,11.947-1.707
		c2.56,1.707,4.267,3.413,6.827,5.12c4.267,2.56,5.12,7.68,1.707,11.947C117.613,465.067,114.2,466.773,111.64,466.773z
		 M414.573,453.973c-2.56,0-5.12-0.853-6.827-3.413c-3.413-3.413-2.56-9.387,0.853-11.947c1.707-1.707,4.267-3.413,5.973-5.12
		c3.413-3.413,8.533-2.56,11.947,0.853c3.413,3.413,2.56,8.533-0.853,11.947c-2.56,1.707-4.267,3.413-6.827,5.973
		C417.987,453.12,416.28,453.973,414.573,453.973z M80.067,439.467c-2.56,0-4.267-0.853-5.973-2.56
		c-1.707-1.707-4.267-4.267-5.973-5.973c-3.413-3.413-3.413-8.533,0-11.947c3.413-3.413,8.533-3.413,11.947,0
		c1.707,1.707,3.413,4.267,5.973,5.973c3.413,3.413,3.413,8.533,0,11.947C84.333,438.613,82.627,439.467,80.067,439.467z
		 M443.587,424.107c-1.707,0-4.267-0.853-5.12-1.707c-3.413-3.413-4.267-8.533-0.853-11.947c1.707-1.707,3.413-4.267,5.12-5.973
		c2.56-3.413,8.533-4.267,11.947-1.707c3.413,2.56,4.267,8.533,1.707,11.947c-1.707,2.56-3.413,4.267-5.12,6.827
		C448.707,423.253,446.147,424.107,443.587,424.107z M52.76,407.893c-2.56,0-5.12-0.853-6.827-3.413
		c-1.707-2.56-3.413-5.12-5.12-6.827c-2.56-4.267-1.707-9.387,2.56-11.947c4.267-2.56,9.387-1.707,11.947,2.56
		c1.707,2.56,3.413,4.267,4.267,6.827c2.56,4.267,1.707,9.387-1.707,11.947C57.027,407.04,54.467,407.893,52.76,407.893z
		 M468.333,390.827c-1.707,0-2.56,0-4.267-0.853c-4.267-2.56-5.12-7.68-3.413-11.947c1.707-2.56,2.56-4.267,4.267-6.827
		c2.56-4.267,7.68-5.973,11.947-3.413s5.973,7.68,3.413,11.947c-1.707,2.56-2.56,5.12-4.267,7.68
		C473.453,389.12,470.893,390.827,468.333,390.827z M32.28,372.053c-3.413,0-5.973-1.707-7.68-5.12
		c-0.853-2.56-2.56-5.12-3.413-7.68c-1.707-4.267,0-9.387,4.267-11.093c4.267-1.707,9.387,0,11.093,4.267
		c0.853,2.56,2.56,5.12,3.413,7.68c1.707,4.267,0,9.387-4.267,11.093C34.84,371.2,33.133,372.053,32.28,372.053z M486.253,353.28
		c-0.853,0-1.707,0-3.413-0.853c-4.267-1.707-6.827-6.827-5.12-11.093c0.853-2.56,1.707-5.12,2.56-7.68
		c1.707-4.267,6.827-6.827,11.093-5.12c4.267,1.707,6.827,6.827,5.12,11.093c-0.853,2.56-1.707,5.12-2.56,7.68
		C493.08,350.72,489.667,353.28,486.253,353.28z M16.92,332.8c-3.413,0-6.827-2.56-8.533-5.973c-0.853-2.56-1.707-5.973-2.56-8.533
		c-0.853-4.267,1.707-9.387,5.973-10.24s9.387,1.707,10.24,5.973c0.853,2.56,1.707,5.12,1.707,7.68
		c1.707,4.267-1.707,9.387-5.973,10.24C18.627,332.8,17.773,332.8,16.92,332.8z M497.347,313.173c-0.853,0-0.853,0-1.707,0
		c-4.267-0.853-7.68-5.12-6.827-10.24c0.853-2.56,0.853-5.12,1.707-7.68c0.853-4.267,5.12-7.68,9.387-6.827s7.68,5.12,6.827,9.387
		c-0.853,2.56-0.853,5.973-1.707,8.533C505.027,309.76,501.613,313.173,497.347,313.173z M9.24,291.84
		c-4.267,0-7.68-3.413-8.533-7.68c0-2.56-0.853-5.973-0.853-8.533c0-5.12,3.413-8.533,7.68-9.387c4.267,0,8.533,3.413,9.387,7.68
		c0,2.56,0.853,5.12,0.853,7.68c0.853,4.267-2.56,8.533-7.68,9.387C9.24,291.84,9.24,291.84,9.24,291.84z M502.467,271.36
		L502.467,271.36c-5.12,0-8.533-4.267-8.533-8.533c0-2.56,0-4.267,0-6.827v-1.707c0-5.12,3.413-8.533,8.533-8.533
		c5.12,0,8.533,3.413,8.533,8.533V256c0,2.56,0,5.12,0,6.827C511,267.947,506.733,271.36,502.467,271.36z M7.533,250.027
		L7.533,250.027c-5.12,0-8.533-4.267-8.533-9.387c0-2.56,0-5.973,0.853-8.533c0-4.267,4.267-7.68,9.387-7.68
		c4.267,0,8.533,4.267,7.68,9.387c0,2.56-0.853,5.12-0.853,7.68C16.067,246.613,12.653,250.027,7.533,250.027z M499.907,229.547
		c-4.267,0-7.68-3.413-8.533-7.68c0-2.56-0.853-5.12-0.853-7.68c-0.853-4.267,2.56-9.387,6.827-10.24
		c4.267-0.853,9.387,2.56,10.24,6.827c0.853,2.56,0.853,5.973,1.707,8.533c0.853,4.267-2.56,9.387-7.68,9.387
		C500.76,229.547,500.76,229.547,499.907,229.547z M13.507,209.067c-0.853,0-0.853,0-1.707,0c-4.267-0.853-7.68-5.973-6.827-10.24
		c0.853-2.56,1.707-5.973,1.707-8.533c0.853-4.267,5.973-7.68,10.24-5.973c4.267,0.853,7.68,5.973,5.973,10.24
		c-0.853,2.56-1.707,5.12-1.707,7.68C21.187,206.507,17.773,209.067,13.507,209.067z M490.52,189.44
		c-3.413,0-6.827-2.56-8.533-5.973c-0.853-2.56-1.707-5.12-2.56-7.68c-1.707-4.267,0.853-9.387,5.12-11.093
		c4.267-1.707,9.387,0.853,11.093,5.12c0.853,2.56,1.707,5.12,2.56,8.533c1.707,4.267-0.853,9.387-5.12,11.093
		C492.227,188.587,491.373,189.44,490.52,189.44z M26.307,168.96c-0.853,0-2.56,0-3.413-0.853
		c-4.267-1.707-5.973-6.827-4.267-11.093c0.853-2.56,2.56-5.12,3.413-7.68c1.707-4.267,6.827-5.973,11.093-4.267
		c4.267,1.707,5.973,6.827,4.267,11.093c-0.853,2.56-2.56,5.12-3.413,7.68C33.133,167.253,29.72,168.96,26.307,168.96z
		 M474.307,150.187c-3.413,0-5.973-1.707-7.68-4.267c-0.853-2.56-2.56-5.12-3.413-6.827c-2.56-4.267-0.853-9.387,3.413-11.947
		s9.387-0.853,11.947,3.413c1.707,2.56,2.56,5.12,4.267,7.68c2.56,4.267,0.853,9.387-3.413,11.093
		C477.72,150.187,476.013,150.187,474.307,150.187z M45.933,132.267c-1.707,0-3.413,0-4.267-1.707
		c-4.267-2.56-5.973-7.68-3.413-11.093c1.707-2.56,3.413-5.12,5.12-6.827c2.56-4.267,7.68-5.12,11.947-2.56
		c4.267,2.56,5.12,7.68,2.56,11.947c-1.707,2.56-3.413,4.267-4.267,6.827C51.053,130.56,48.493,132.267,45.933,132.267z
		 M452.12,115.2c-2.56,0-5.12-0.853-6.827-3.413c-1.707-2.56-3.413-4.267-5.12-5.973c-2.56-3.413-2.56-9.387,0.853-11.947
		c3.413-2.56,9.387-2.56,11.947,0.853c1.707,2.56,3.413,4.267,5.12,6.827c2.56,3.413,1.707,9.387-1.707,11.947
		C456.387,115.2,453.827,115.2,452.12,115.2z M70.68,98.987c-1.707,0-4.267-0.853-5.973-2.56c-3.413-3.413-3.413-8.533-0.853-11.947
		c1.707-2.56,4.267-4.267,5.973-5.973c3.413-3.413,8.533-3.413,11.947,0s3.413,8.533,0,11.947c-1.707,1.707-3.413,4.267-5.12,5.973
		C75.8,98.133,73.24,98.987,70.68,98.987z M424.813,84.48c-1.707,0-4.267-0.853-5.973-2.56s-4.267-3.413-5.973-5.12
		c-3.413-3.413-4.267-8.533-0.853-11.947c3.413-3.413,8.533-4.267,11.947-0.853c2.56,1.707,4.267,4.267,6.827,5.973
		c3.413,3.413,3.413,8.533,0,11.947C429.08,83.627,426.52,84.48,424.813,84.48z M101.4,70.827c-2.56,0-5.12-0.853-6.827-3.413
		c-2.56-3.413-2.56-9.387,1.707-11.947c2.56-1.707,4.267-3.413,6.827-5.12c3.413-2.56,9.387-1.707,11.947,1.707
		S116.76,61.44,113.347,64c-2.56,1.707-4.267,3.413-6.827,5.12C104.813,69.973,103.107,70.827,101.4,70.827z M136.387,47.787
		c-3.413,0-5.973-1.707-7.68-4.267c-2.56-4.267-0.853-9.387,3.413-11.947c2.56-1.707,5.12-2.56,7.68-4.267
		c4.267-1.707,9.387,0,11.093,3.413c1.707,4.267,0.853,9.387-3.413,11.093c-2.56,0.853-5.12,2.56-6.827,3.413
		C138.947,46.933,137.24,47.787,136.387,47.787z M173.933,30.72c-3.413,0-6.827-2.56-7.68-5.973
		c-1.707-4.267,0.853-9.387,5.12-11.093c2.56-0.853,5.12-1.707,8.533-2.56c4.267-1.707,9.387,0.853,10.24,5.973
		c1.707,4.267-0.853,9.387-5.973,10.24c-2.56,0.853-5.12,1.707-7.68,2.56C176.493,30.72,175.64,30.72,173.933,30.72z M214.893,20.48
		c-4.267,0-7.68-2.56-8.533-6.827c-0.853-4.267,2.56-9.387,6.827-9.387c2.56-0.853,5.973-0.853,8.533-0.853
		c4.267-0.853,8.533,2.56,9.387,7.68c0.853,5.12-2.56,8.533-7.68,9.387c-2.56,0-5.12,0.853-7.68,0.853
		C215.747,20.48,214.893,20.48,214.893,20.48z"/>
	<path d="M374.467,373.76c-1.707,0-4.267-0.853-5.973-2.56c-0.853-0.853-1.707-0.853-2.56-1.707c-4.267-2.56-5.12-7.68-2.56-11.947
		c1.707-3.413,5.973-4.267,9.387-3.413c3.413-1.707,6.827-0.853,9.387,0.853c3.413,3.413,4.267,8.533,0.853,11.947
		c-0.853,0.853-1.707,2.56-3.413,3.413C378.733,372.907,377.027,373.76,374.467,373.76z"/>
	<path d="M395.8,343.893c-1.707,0-2.56,0-4.267-0.853c-4.267-2.56-5.12-7.68-3.413-11.947c0.853-2.56,2.56-4.267,3.413-6.827
		c1.707-4.267,7.68-5.973,11.093-3.413c4.267,1.707,5.973,7.68,3.413,11.093c-0.853,2.56-2.56,5.12-4.267,7.68
		C401.773,343.04,399.213,343.893,395.8,343.893z M411.16,307.2c-0.853,0-1.707,0-2.56,0c-4.267-0.853-6.827-5.973-5.973-10.24
		c0.853-2.56,1.707-5.12,1.707-7.68c0.853-4.267,5.973-7.68,10.24-6.827c4.267,0.853,7.68,5.973,6.827,10.24
		c-0.853,2.56-1.707,5.12-1.707,8.533C418.84,304.64,415.427,307.2,411.16,307.2z"/>
	<path d="M255,426.667h-1.707c-5.12,0-8.533-4.267-8.533-8.533c0-5.12,4.267-8.533,8.533-8.533H255c2.56,0,4.267,0,5.973,0
		c5.12,0,8.533,3.413,8.533,8.533s-3.413,8.533-8.533,8.533C259.267,426.667,257.56,426.667,255,426.667z M221.72,423.253
		c-0.853,0-0.853,0-1.707,0c-2.56-0.853-5.12-0.853-8.533-1.707c-4.267-0.853-7.68-5.973-5.973-10.24
		c0.853-4.267,5.973-7.68,10.24-5.973c2.56,0.853,5.12,0.853,7.68,1.707c4.267,0.853,7.68,5.12,6.827,10.24
		C229.4,420.693,225.133,423.253,221.72,423.253z M293.4,422.4c-3.413,0-7.68-2.56-8.533-6.827
		c-0.853-4.267,1.707-9.387,5.973-10.24c2.56-0.853,5.12-0.853,7.68-1.707c4.267-1.707,9.387,0.853,10.24,5.973
		c0.853,5.12-0.853,9.387-5.973,10.24c-2.56,0.853-5.12,1.707-8.533,2.56C295.107,421.547,294.253,422.4,293.4,422.4z
		 M183.32,410.453c-0.853,0-2.56,0-3.413-0.853c-2.56-0.853-5.12-2.56-7.68-4.267c-4.267-2.56-5.973-7.68-3.413-11.947
		c2.56-4.267,7.68-5.973,11.947-3.413c2.56,0.853,4.267,2.56,6.827,3.413c4.267,1.707,5.973,6.827,4.267,11.093
		C190.147,408.747,186.733,410.453,183.32,410.453z M150.04,388.267c-1.707,0-4.267-0.853-5.12-1.707
		c-2.56-1.707-4.267-3.413-5.973-5.973c-3.413-3.413-3.413-8.533,0-11.947c3.413-3.413,8.533-3.413,11.947,0
		c1.707,1.707,3.413,3.413,5.973,5.12c3.413,3.413,4.267,8.533,0.853,11.947C155.16,387.413,152.6,388.267,150.04,388.267z
		 M122.733,358.4c-2.56,0-5.12-0.853-6.827-3.413c-1.707-2.56-3.413-4.267-5.12-6.827c-2.56-4.267-1.707-9.387,2.56-11.947
		c4.267-2.56,9.387-1.707,11.947,2.56c1.707,2.56,2.56,4.267,4.267,5.973c2.56,3.413,1.707,9.387-1.707,11.947
		C126.147,357.547,124.44,358.4,122.733,358.4z M103.96,323.413c-3.413,0-6.827-1.707-7.68-5.12c-0.853-2.56-1.707-5.12-2.56-7.68
		c-1.707-4.267,0.853-9.387,5.12-11.093c4.267-1.707,9.387,0.853,11.093,5.12c0.853,2.56,1.707,5.12,2.56,6.827
		c1.707,4.267-0.853,9.387-5.12,11.093C105.667,322.56,104.813,323.413,103.96,323.413z M93.72,284.16
		c-4.267,0-7.68-3.413-8.533-7.68c0-2.56-0.853-5.973-0.853-8.533c0-5.12,3.413-8.533,7.68-9.387c4.267,0,8.533,3.413,9.387,7.68
		c0,2.56,0,5.12,0.853,7.68c0.853,4.267-2.56,8.533-7.68,9.387C94.573,284.16,94.573,284.16,93.72,284.16z M417.133,267.093
		L417.133,267.093c-5.12,0-8.533-4.267-8.533-8.533V256c0-1.707,0-3.413,0-5.12c0-5.12,3.413-8.533,8.533-8.533
		s8.533,3.413,8.533,8.533c0,1.707,0,3.413,0,5.973v2.56C425.667,263.68,421.4,267.093,417.133,267.093z M94.573,244.053H93.72
		c-4.267-0.853-7.68-5.12-7.68-9.387c0-2.56,0.853-5.973,1.707-8.533c0.853-4.267,5.12-7.68,10.24-6.827
		c4.267,0.853,7.68,5.12,6.827,10.24c-0.853,2.56-0.853,5.12-0.853,7.68C102.253,240.64,98.84,244.053,94.573,244.053z
		 M412.867,226.987c-4.267,0-7.68-2.56-8.533-6.827c-0.853-2.56-0.853-5.12-1.707-7.68c-1.707-4.267,1.707-9.387,5.973-10.24
		c4.267-1.707,9.387,1.707,10.24,5.973c0.853,2.56,1.707,5.12,2.56,8.533c0.853,4.267-1.707,9.387-5.973,10.24
		C413.72,226.987,413.72,226.987,412.867,226.987z M103.96,204.8c-0.853,0-1.707,0-3.413-0.853
		c-4.267-1.707-6.827-6.827-5.12-11.093c0.853-2.56,2.56-5.12,3.413-7.68c1.707-4.267,6.827-5.973,11.093-4.267
		c4.267,1.707,5.973,6.827,4.267,11.093c-0.853,2.56-1.707,4.267-2.56,6.827C110.787,203.093,107.373,204.8,103.96,204.8z
		 M399.213,189.44c-3.413,0-5.973-1.707-7.68-4.267c-0.853-2.56-2.56-4.267-3.413-6.827c-2.56-4.267-0.853-9.387,3.413-11.947
		s9.387-0.853,11.947,3.413c1.707,2.56,2.56,5.12,4.267,7.68c2.56,4.267,0.853,9.387-3.413,11.093
		C401.773,189.44,400.067,189.44,399.213,189.44z M123.587,169.813c-1.707,0-3.413-0.853-5.12-1.707
		c-3.413-2.56-4.267-7.68-1.707-11.947c1.707-2.56,3.413-4.267,5.12-6.827c2.56-3.413,8.533-4.267,11.947-1.707
		c3.413,2.56,4.267,8.533,1.707,11.947c-1.707,1.707-3.413,4.267-4.267,5.973C128.707,168.96,126.147,169.813,123.587,169.813z
		 M376.173,157.013c-2.56,0-4.267-0.853-5.973-2.56c-1.707-1.707-3.413-3.413-5.12-5.973c-3.413-3.413-3.413-8.533,0-11.947
		c3.413-3.413,8.533-3.413,11.947,0c1.707,1.707,4.267,4.267,5.973,5.973c3.413,3.413,2.56,8.533-0.853,11.947
		C379.587,156.16,377.88,157.013,376.173,157.013z M150.893,139.947c-2.56,0-5.12-0.853-6.827-3.413
		c-3.413-3.413-2.56-9.387,0.853-11.947c2.56-1.707,4.267-3.413,6.827-5.12c3.413-2.56,9.387-1.707,11.947,1.707
		c2.56,3.413,1.707,9.387-1.707,11.947c-1.707,1.707-4.267,3.413-5.973,5.12C155.16,139.947,152.6,139.947,150.893,139.947z
		 M345.453,130.56c-1.707,0-3.413-0.853-5.12-1.707c-1.707-1.707-4.267-2.56-6.827-4.267c-4.267-2.56-5.12-7.68-2.56-11.947
		c2.56-4.267,7.68-5.12,11.947-2.56c2.56,1.707,5.12,3.413,6.827,4.267c4.267,2.56,5.12,7.68,2.56,11.947
		C351.427,128.853,348.013,130.56,345.453,130.56z M184.173,118.613c-3.413,0-5.973-1.707-7.68-5.12
		c-1.707-4.267,0-9.387,4.267-11.093c2.56-0.853,5.12-2.56,7.68-3.413c4.267-1.707,9.387,0,11.093,4.267
		c1.707,4.267,0,9.387-4.267,11.093c-2.56,0.853-4.267,1.707-6.827,3.413C186.733,118.613,185.88,118.613,184.173,118.613z
		 M309.613,111.787c-0.853,0-1.707,0-2.56-0.853c-2.56-0.853-5.12-1.707-6.827-2.56c-4.267-1.707-6.827-5.973-5.973-10.24
		c1.707-4.267,5.973-6.827,10.24-5.973c2.56,0.853,5.12,1.707,7.68,2.56c4.267,1.707,6.827,6.827,5.12,11.093
		C316.44,110.08,313.027,111.787,309.613,111.787z M222.573,105.813c-4.267,0-7.68-2.56-8.533-6.827
		c-0.853-4.267,1.707-9.387,6.827-10.24c2.56-0.853,5.12-0.853,8.533-1.707c4.267-0.853,9.387,2.56,9.387,6.827
		c0.853,4.267-2.56,9.387-6.827,9.387c-2.56,0-5.12,0.853-7.68,1.707C223.427,105.813,223.427,105.813,222.573,105.813z
		 M270.36,103.253L270.36,103.253c-3.413,0-5.973-0.853-8.533-0.853c-5.12,0-8.533-4.267-8.533-8.533
		c0-5.12,4.267-8.533,8.533-8.533c2.56,0,5.973,0,8.533,0.853c4.267,0.853,8.533,4.267,7.68,9.387
		C278.893,99.84,275.48,103.253,270.36,103.253z"/>
	<path d="M331.8,407.04c-3.413,0-5.973-1.707-7.68-4.267c-1.707-3.413-0.853-6.827,0.853-9.387c0-3.413,1.707-6.827,5.12-8.533
		c4.267-1.707,9.387,0.853,11.093,5.12c0,0.853,0.853,1.707,0.853,2.56c2.56,4.267,0.853,9.387-3.413,11.947
		c-1.707,0.853-2.56,1.707-4.267,2.56C334.36,407.04,332.653,407.04,331.8,407.04z"/>
	<path d="M333.507,383.147c-0.853,0-1.707,0-2.56-0.853c-4.267-1.707-6.827-6.827-5.12-11.093c0.853-1.707,1.707-3.413,2.56-5.12
		c2.56-4.267,7.68-5.12,11.947-2.56s5.12,7.68,2.56,11.947c-0.853,0.853-0.853,1.707-1.707,2.56
		C340.333,381.44,336.92,383.147,333.507,383.147z M348.867,368.64c-3.413,0-6.827-2.56-7.68-5.973
		c-1.707-4.267,0.853-9.387,5.12-11.093c1.707-0.853,4.267-0.853,5.973-1.707c4.267-0.853,9.387,2.56,9.387,6.827
		c0,4.267-2.56,9.387-6.827,9.387c-0.853,0-1.707,0-2.56,0.853C351.427,367.787,350.573,368.64,348.867,368.64z"/>
</g>
<g>
</g>
<g>
</g>
<g>
</g>
<g>
</g>
<g>
</g>
<g>
</g>
<g>
</g>
<g>
</g>
<g>
</g>
<g>
</g>
<g>
</g>
<g>
</g>
<g>
</g>
<g>
</g>
<g>
</g>
</svg>
