<?xml version="1.0" encoding="iso-8859-1"?>
<!-- Generator: Adobe Illustrator 19.0.0, SVG Export Plug-In . SVG Version: 6.00 Build 0)  -->
<svg version="1.1" id="Layer_1" xmlns="http://www.w3.org/2000/svg" xmlns:xlink="http://www.w3.org/1999/xlink" x="0px" y="0px"
	 viewBox="0 0 511.551 511.551" style="enable-background:new 0 0 511.551 511.551;" xml:space="preserve">
<path style="fill:#D1D4D1;" d="M73.432,349.867h364.688L255.775,26.498L73.432,349.867z M453.389,367.832H58.161
	c-3.593,0-6.288-1.796-8.084-4.491c-1.796-2.695-1.796-6.288,0-8.982L247.691,4.042c3.593-5.389,12.575-5.389,15.27,0
	l197.614,350.316c1.797,2.695,1.797,6.288,0,8.982C459.677,366.035,456.982,367.832,453.389,367.832L453.389,367.832z"/>
<path style="fill:#AAAAAA;" d="M83.312,178.302l163.481,289.235c6.288-1.797,12.575-1.797,18.863,0l163.481-290.133
	c-4.491-4.491-8.084-10.779-9.881-17.067H93.193C91.396,167.523,87.804,173.811,83.312,178.302 M269.249,488.197
	c-1.796,0-2.695,0-4.491-0.898c-5.389-3.593-11.677-3.593-17.965,0c-1.796,0.898-4.491,1.797-7.186,0.898
	c-2.695-0.898-4.491-1.796-5.389-4.491L63.551,180.098c-2.695-4.491-0.898-9.881,3.593-12.575c5.389-3.593,8.982-8.982,8.982-15.27
	c0-5.389,3.593-8.982,8.982-8.982h341.333c5.389,0,8.982,3.593,8.982,8.982c0,6.288,3.593,12.575,8.982,15.27
	c4.491,2.695,5.389,8.084,3.593,12.575L276.435,483.705c-0.898,1.796-2.695,3.593-5.389,4.491
	C270.147,488.197,270.147,488.197,269.249,488.197"/>
<g>
	<path style="fill:#3B97D3;" d="M282.723,484.604c0-15.27-11.677-26.947-26.947-26.947s-26.947,11.677-26.947,26.947
		s11.677,26.947,26.947,26.947S282.723,499.874,282.723,484.604"/>
	<path style="fill:#3B97D3;" d="M471.354,161.235c0-15.27-11.677-26.947-26.947-26.947c-15.27,0-26.947,11.677-26.947,26.947
		s11.677,26.947,26.947,26.947C459.677,188.182,471.354,176.505,471.354,161.235"/>
	<path style="fill:#3B97D3;" d="M94.091,161.235c0-15.27-11.677-26.947-26.947-26.947s-26.947,11.677-26.947,26.947
		s11.677,26.947,26.947,26.947S94.091,176.505,94.091,161.235"/>
</g>
<g>
</g>
<g>
</g>
<g>
</g>
<g>
</g>
<g>
</g>
<g>
</g>
<g>
</g>
<g>
</g>
<g>
</g>
<g>
</g>
<g>
</g>
<g>
</g>
<g>
</g>
<g>
</g>
<g>
</g>
</svg>
